<svg xmlns="http://www.w3.org/2000/svg" width="24" height="21.031" viewBox="0 0 24 21.031">
  <path id="heart" class="cls-1" d="M656.207,898.3L645.981,909l-10.225-10.7a6.1,6.1,0,0,1,0-8.562,5.956,5.956,0,0,1,8.48,0l1.745,2.14,1.746-2.14a5.956,5.956,0,0,1,8.48,0A6.1,6.1,0,0,1,656.207,898.3Zm-6.489-8.212-3.741,3.3-2.741-3.3a4.77,4.77,0,0,0-7.2,1c-1.13,1.712-1.436,3.84,0,5.3L645.977,907l9.941-10.611a3.8,3.8,0,0,0,0-5.3C654.482,889.62,651.154,888.62,649.718,890.085Z" transform="translate(-634 -887.969)"/>
</svg>
