<svg xmlns="http://www.w3.org/2000/svg" xmlns:xlink="http://www.w3.org/1999/xlink"><symbol id="icon-arrow" viewBox="0 0 19 15"><path data-name="arrow icon" class="cls-1" d="M19 7H0v1h19V7zm-8.015 7.285l7.3-7.3.73.729-7.3 7.3zm0-13.57l7.3 7.3.73-.73-7.3-7.3z"/></symbol><symbol id="icon-arrow_left" viewBox="0 0 19 15"><path data-name="arrow icon" class="cls-1" d="M0 7h19v1H0V7zm8.015 7.28l-7.3-7.29-.73.73 7.3 7.29zm0-13.56l-7.3 7.29-.73-.73 7.3-7.29z"/></symbol><symbol id="icon-facebook" viewBox="0 0 10 21.46"><path d="M10 7.03l-.39 3.7H6.65v10.73H2.21V10.73H0v-3.7h2.21V4.8c0-3 1.25-4.8 4.81-4.8h2.96v3.7H8.12c-1.38 0-1.47.52-1.47 1.48v1.85H10z"/></symbol><symbol id="icon-google" viewBox="0 0 37.71 37.71"><path d="M24.07 0l-3.06 1.79h-3.06c2.24 1.41 3.38 4.15 3.38 6.69 0 6.01-5.08 6.46-5.08 9.45 0 2.92 6.8 4.08 6.8 10.42 0 2.61-1.25 4.71-3.17 6.39-2.61 2.24-6.16 2.97-9.52 2.97C6.12 37.71 0 35.9 0 30.64c0-1.07.36-2.11.84-3.06 2.02-4.08 8.32-5.12 12.37-5.24-.75-.97-1.45-2.11-1.45-3.38 0-.75.27-1.25.5-1.95-.54.07-1.07.11-1.59.11-4.4 0-8.2-3.24-8.2-7.8 0-4.31 3.33-7.98 7.46-8.88C11.31.16 12.74 0 14.16 0h9.91zm-9.5 23.75c-.39-.05-.75-.05-1.13-.05-3.72 0-9.25 1.18-9.25 5.89 0 4.35 4.9 6.03 8.52 6.03 3.38 0 7.14-1.36 7.14-5.33 0-3.16-2.97-4.93-5.28-6.54zM11.08 1.63c-2.97 0-4.42 2.63-4.42 5.3 0 3.44 2.27 8.84 6.3 8.84 3.1 0 4.17-2.24 4.17-5.01 0-3.44-1.86-9.13-6.05-9.13zM37.71 8.7h-5.8v5.8h-2.9V8.7h-5.8V5.8h5.8V0h2.9v5.8h5.8v2.9z"/></symbol><symbol id="icon-like" viewBox="0 0 24 21.031"><path class="cls-1" d="M22.207 10.331l-10.226 10.7-10.225-10.7a6.1 6.1 0 010-8.562 5.956 5.956 0 018.48 0l1.745 2.14 1.746-2.14a5.956 5.956 0 018.48 0 6.1 6.1 0 010 8.562zm-6.489-8.212l-3.741 3.3-2.741-3.3a4.77 4.77 0 00-7.2 1c-1.13 1.712-1.436 3.84 0 5.3l9.941 10.612L21.918 8.42a3.8 3.8 0 000-5.3c-1.436-1.469-4.764-2.469-6.2-1.004z"/></symbol><symbol id="icon-line" viewBox="0 0 465.88 500.844"><path class="cls-1" d="M466.51-2.34l.74.68-466 502-.74-.68z"/></symbol><symbol id="icon-linkedin" viewBox="0 0 38.57 36.86"><path d="M4.62 8.59h-.05C1.78 8.59 0 6.68 0 4.29 0 1.86 1.86 0 4.67 0c2.84 0 4.6 1.86 4.62 4.29.03 2.39-1.78 4.3-4.67 4.3zm4.14 28.27H.48V11.98h8.29v24.88zm29.81 0h-8.26V23.55c0-3.34-1.21-5.62-4.19-5.62-2.29 0-3.64 1.53-4.24 3.01-.2.55-.28 1.28-.28 2.03v13.89h-8.26c.1-22.55 0-24.88 0-24.88h8.26v3.62h-.05c1.08-1.71 3.04-4.19 7.51-4.19 5.45 0 9.52 3.57 9.52 11.2v14.25z"/></symbol><symbol id="icon-twitter" viewBox="0 0 39.57 32.14"><path d="M35.51 8.01c.03.35.03.7.03 1.05 0 10.72-8.16 23.08-23.08 23.08-4.6 0-8.86-1.33-12.45-3.64.65.08 1.28.1 1.96.1 3.79 0 7.28-1.28 10.07-3.47a8.124 8.124 0 01-7.58-5.62c.5.08 1 .13 1.53.13.73 0 1.46-.1 2.13-.28a8.104 8.104 0 01-6.5-7.96v-.1c1.08.6 2.34.98 3.67 1.03-2.18-1.46-3.62-3.94-3.62-6.75 0-1.51.4-2.89 1.1-4.09 3.99 4.92 9.99 8.14 16.72 8.49-.13-.6-.2-1.23-.2-1.86A8.098 8.098 0 0127.4 0c2.34 0 4.44.98 5.93 2.56A15.98 15.98 0 0038.48.6a8.05 8.05 0 01-3.57 4.47c1.63-.18 3.21-.63 4.67-1.26a17.46 17.46 0 01-4.07 4.2z"/></symbol> <view id="icon-arrow-view-yellow" viewBox="0 0 19 15"/><view id="icon-arrow-view-red" viewBox="0 25 19 15"/><view id="icon-arrow-view-white" viewBox="0 50 19 15"/><view id="icon-arrow_left-view-yellow" viewBox="0 75 19 15"/><view id="icon-arrow_left-view-red" viewBox="0 100 19 15"/><view id="icon-arrow_left-view-white" viewBox="0 125 19 15"/><view id="icon-facebook-view-yellow" viewBox="0 150 10 21.46"/><view id="icon-facebook-view-red" viewBox="0 181.46 10 21.46"/><view id="icon-facebook-view-white" viewBox="0 212.92000000000002 10 21.46"/><view id="icon-google-view-yellow" viewBox="0 244.38 37.71 37.71"/><view id="icon-google-view-red" viewBox="0 292.09 37.71 37.71"/><view id="icon-google-view-white" viewBox="0 339.8 37.71 37.71"/><view id="icon-like-view-yellow" viewBox="0 387.51 24 21.031"/><view id="icon-like-view-red" viewBox="0 418.541 24 21.031"/><view id="icon-like-view-white" viewBox="0 449.572 24 21.031"/><view id="icon-line-view-yellow" viewBox="0 480.60299999999995 465.88 500.844"/><view id="icon-line-view-red" viewBox="0 991.4469999999999 465.88 500.844"/><view id="icon-line-view-white" viewBox="0 1502.291 465.88 500.844"/><view id="icon-linkedin-view-yellow" viewBox="0 2013.1349999999998 38.57 36.86"/><view id="icon-linkedin-view-red" viewBox="0 2059.995 38.57 36.86"/><view id="icon-linkedin-view-white" viewBox="0 2106.8549999999996 38.57 36.86"/><view id="icon-twitter-view-yellow" viewBox="0 2153.7149999999997 39.57 32.14"/><view id="icon-twitter-view-red" viewBox="0 2195.8549999999996 39.57 32.14"/><view id="icon-twitter-view-white" viewBox="0 2237.995 39.57 32.14"/> <use xlink:href="#icon-arrow" x="0" y="0" width="19" height="15" style="fill:#ebb240"/><use xlink:href="#icon-arrow" x="0" y="25" width="19" height="15" style="fill:#fd5000"/><use xlink:href="#icon-arrow" x="0" y="50" width="19" height="15" style="fill:#ffffff"/><use xlink:href="#icon-arrow_left" x="0" y="75" width="19" height="15" style="fill:#ebb240"/><use xlink:href="#icon-arrow_left" x="0" y="100" width="19" height="15" style="fill:#fd5000"/><use xlink:href="#icon-arrow_left" x="0" y="125" width="19" height="15" style="fill:#ffffff"/><use xlink:href="#icon-facebook" x="0" y="150" width="10" height="21.46" style="fill:#ebb240"/><use xlink:href="#icon-facebook" x="0" y="181.46" width="10" height="21.46" style="fill:#fd5000"/><use xlink:href="#icon-facebook" x="0" y="212.92000000000002" width="10" height="21.46" style="fill:#ffffff"/><use xlink:href="#icon-google" x="0" y="244.38" width="37.71" height="37.71" style="fill:#ebb240"/><use xlink:href="#icon-google" x="0" y="292.09" width="37.71" height="37.71" style="fill:#fd5000"/><use xlink:href="#icon-google" x="0" y="339.8" width="37.71" height="37.71" style="fill:#ffffff"/><use xlink:href="#icon-like" x="0" y="387.51" width="24" height="21.031" style="fill:#ebb240"/><use xlink:href="#icon-like" x="0" y="418.541" width="24" height="21.031" style="fill:#fd5000"/><use xlink:href="#icon-like" x="0" y="449.572" width="24" height="21.031" style="fill:#ffffff"/><use xlink:href="#icon-line" x="0" y="480.60299999999995" width="465.88" height="500.844" style="fill:#ebb240"/><use xlink:href="#icon-line" x="0" y="991.4469999999999" width="465.88" height="500.844" style="fill:#fd5000"/><use xlink:href="#icon-line" x="0" y="1502.291" width="465.88" height="500.844" style="fill:#ffffff"/><use xlink:href="#icon-linkedin" x="0" y="2013.1349999999998" width="38.57" height="36.86" style="fill:#ebb240"/><use xlink:href="#icon-linkedin" x="0" y="2059.995" width="38.57" height="36.86" style="fill:#fd5000"/><use xlink:href="#icon-linkedin" x="0" y="2106.8549999999996" width="38.57" height="36.86" style="fill:#ffffff"/><use xlink:href="#icon-twitter" x="0" y="2153.7149999999997" width="39.57" height="32.14" style="fill:#ebb240"/><use xlink:href="#icon-twitter" x="0" y="2195.8549999999996" width="39.57" height="32.14" style="fill:#fd5000"/><use xlink:href="#icon-twitter" x="0" y="2237.995" width="39.57" height="32.14" style="fill:#ffffff"/></svg>